<svg xmlns="http://www.w3.org/2000/svg" xmlns:xlink="http://www.w3.org/1999/xlink" width="500" zoomAndPan="magnify" viewBox="0 0 375 149.999998" height="200" preserveAspectRatio="xMidYMid meet" version="1.0"><path fill="#0c383f" d="M 184.21875 18.796875 L 184.980469 18.878906 C 188.613281 19.269531 192.132812 20.070312 195.675781 20.945312 L 196.585938 21.167969 C 198.765625 21.699219 200.925781 22.292969 203.070312 22.945312 L 203.570312 23.097656 C 210.988281 25.359375 218.226562 28.105469 225.445312 30.921875 C 227.625 31.769531 229.8125 32.601562 232.003906 33.421875 C 232.40625 33.574219 232.808594 33.726562 233.210938 33.875 C 235.414062 34.707031 237.621094 35.503906 239.859375 36.230469 C 240.539062 36.457031 240.539062 36.457031 241.015625 36.695312 L 241.015625 37.171875 L 240.0625 37.171875 L 240.0625 37.652344 L 239.28125 38.019531 C 236.933594 39.171875 235.089844 40.457031 233.257812 42.320312 C 232.882812 42.679688 232.488281 42.992188 232.078125 43.3125 C 231.015625 44.214844 230.34375 45.347656 229.621094 46.523438 C 229.355469 46.953125 229.085938 47.378906 228.820312 47.804688 L 228.46875 48.371094 C 227.855469 49.265625 227.855469 49.265625 227.414062 49.582031 C 225.417969 49.597656 223.519531 48.769531 221.714844 48 C 221.195312 47.785156 220.675781 47.570312 220.152344 47.359375 L 219.363281 47.03125 C 217.933594 46.457031 216.480469 45.941406 215.023438 45.429688 L 214.410156 45.214844 L 213.882812 45.027344 C 213.332031 44.808594 213.332031 44.808594 212.644531 44.453125 C 211.890625 44.089844 211.183594 43.863281 210.371094 43.648438 C 209.15625 43.3125 207.957031 42.949219 206.761719 42.539062 L 206.300781 42.378906 L 205.351562 42.054688 C 198.902344 39.847656 192.378906 38.183594 185.636719 37.160156 C 185.402344 37.121094 185.167969 37.085938 184.925781 37.050781 C 184.234375 36.949219 183.542969 36.855469 182.851562 36.765625 C 182.460938 36.714844 182.070312 36.664062 181.675781 36.609375 C 177.15625 35.984375 172.707031 35.867188 168.152344 35.886719 C 167.191406 35.890625 166.226562 35.890625 165.261719 35.882812 C 160.519531 35.867188 155.863281 36.082031 151.148438 36.605469 C 150.195312 36.710938 149.238281 36.804688 148.285156 36.898438 C 147.320312 36.992188 146.359375 37.089844 145.394531 37.1875 L 143.097656 37.421875 L 142.523438 37.476562 C 141.539062 37.578125 140.550781 37.671875 139.566406 37.761719 C 136.578125 38.035156 133.605469 38.382812 130.628906 38.785156 L 129.929688 38.878906 C 125.914062 39.417969 121.917969 40.054688 117.921875 40.742188 C 116.265625 41.023438 114.601562 41.285156 112.941406 41.542969 L 111.09375 41.828125 L 110.589844 41.910156 C 107.957031 42.316406 105.328125 42.730469 102.699219 43.144531 L 100.890625 43.429688 C 95.550781 44.144531 95.550781 44.144531 90.300781 45.292969 C 89.515625 45.515625 88.765625 45.652344 87.957031 45.765625 L 87.113281 45.882812 L 85.371094 46.121094 L 84.527344 46.242188 L 83.765625 46.347656 C 83.011719 46.484375 82.324219 46.703125 81.605469 46.957031 C 80.710938 47.167969 79.816406 47.269531 78.90625 47.375 C 77.15625 47.597656 75.445312 47.949219 73.726562 48.316406 C 71.082031 48.878906 68.433594 49.394531 65.78125 49.910156 C 61.742188 50.695312 61.742188 50.695312 57.710938 51.5 L 57.148438 51.613281 L 55.007812 52.046875 C 53.21875 52.40625 51.429688 52.757812 49.625 53.027344 C 45.734375 53.621094 41.890625 54.652344 38.0625 55.5625 C 36.144531 56.019531 34.226562 56.453125 32.296875 56.832031 L 31.550781 56.980469 C 30.265625 57.234375 28.976562 57.484375 27.6875 57.726562 C 27.039062 57.851562 26.386719 57.972656 25.734375 58.097656 C 25.273438 58.183594 24.808594 58.273438 24.347656 58.355469 C 22.511719 58.707031 20.71875 59.140625 18.917969 59.632812 C 18.03125 59.871094 17.152344 60.054688 16.246094 60.21875 C 15.074219 60.441406 13.980469 60.71875 12.863281 61.125 C 12.15625 61.355469 11.464844 61.4375 10.726562 61.515625 L 10.726562 61.039062 L 11.484375 60.820312 C 17.058594 59.21875 22.605469 57.515625 28.121094 55.714844 L 28.945312 55.441406 C 31.90625 54.476562 34.851562 53.472656 37.773438 52.398438 C 39.527344 51.753906 41.292969 51.148438 43.070312 50.566406 C 43.980469 50.269531 44.886719 49.96875 45.792969 49.667969 L 46.375 49.472656 C 48.78125 48.675781 51.179688 47.851562 53.578125 47.03125 C 56.472656 46.042969 59.371094 45.054688 62.273438 44.09375 C 65.589844 42.992188 68.890625 41.851562 72.164062 40.632812 C 74.320312 39.832031 76.492188 39.105469 78.679688 38.386719 C 80.070312 37.925781 81.464844 37.460938 82.855469 36.996094 C 83.398438 36.8125 83.941406 36.632812 84.484375 36.453125 C 86.355469 35.832031 88.222656 35.207031 90.085938 34.578125 C 99.039062 31.566406 99.039062 31.566406 102.503906 30.59375 C 104.265625 30.097656 106.003906 29.535156 107.742188 28.964844 C 110.421875 28.085938 113.097656 27.277344 115.832031 26.597656 C 117.066406 26.289062 118.289062 25.953125 119.511719 25.609375 C 129.089844 22.941406 138.785156 21.019531 148.625 19.589844 C 149.078125 19.523438 149.53125 19.457031 149.988281 19.386719 C 151.609375 19.148438 153.234375 18.949219 154.867188 18.796875 L 155.363281 18.75 C 164.992188 17.851562 174.601562 17.707031 184.21875 18.796875 " fill-opacity="1" fill-rule="nonzero"/><path fill="#8f8f8f" d="M 150.332031 63.902344 L 150.808594 63.902344 L 150.808594 83.945312 C 155.769531 84.019531 155.769531 84.019531 160.59375 82.753906 L 161.546875 82.753906 C 161.519531 83.914062 161.398438 84.890625 160.804688 85.902344 C 159.980469 87.089844 158.96875 87.917969 157.746094 88.675781 C 156.175781 89.28125 154.5 89.230469 152.839844 89.210938 L 152.242188 89.207031 C 151.765625 89.207031 151.289062 89.203125 150.808594 89.195312 C 150.804688 91.328125 150.800781 93.464844 150.796875 95.597656 C 150.796875 96.585938 150.792969 97.578125 150.792969 98.570312 C 150.78125 102.355469 150.773438 106.144531 150.910156 109.929688 L 150.9375 110.675781 C 151.03125 112.828125 151.261719 114.855469 152.285156 116.789062 C 152.621094 117.261719 152.898438 117.554688 153.382812 117.867188 C 154.386719 118.304688 155.394531 118.421875 156.480469 118.378906 C 157.542969 118.242188 158.445312 117.910156 159.335938 117.324219 C 160.121094 116.710938 160.628906 116.089844 161.070312 115.207031 C 161.175781 114.535156 161.175781 114.535156 161.160156 113.816406 L 161.164062 112.980469 L 161.160156 112.085938 L 161.167969 110.675781 C 161.175781 109.519531 161.175781 108.367188 161.175781 107.210938 C 161.175781 100.082031 161.175781 100.082031 162.265625 97.3125 L 162.46875 96.761719 C 163.234375 94.867188 164.246094 93.320312 165.84375 92.0625 C 168.078125 90.339844 170.417969 88.863281 172.871094 87.480469 C 174.460938 86.578125 175.867188 85.566406 177.210938 84.320312 C 177.777344 83.945312 177.777344 83.945312 178.546875 83.886719 C 180.515625 84.019531 182.441406 85.09375 184.070312 86.167969 C 185.242188 87.042969 186.183594 88.050781 187.082031 89.195312 L 187.449219 89.65625 C 188.253906 90.785156 188.554688 91.925781 188.726562 93.296875 C 188.753906 93.96875 188.753906 93.96875 188.558594 94.863281 C 187.5625 96.347656 186.261719 97.402344 184.695312 98.25 C 183.574219 98.773438 182.585938 98.921875 181.355469 98.980469 C 181.011719 98.164062 180.757812 97.367188 180.550781 96.503906 C 180.121094 94.875 180.121094 94.875 179.207031 93.492188 C 178.132812 92.710938 176.960938 91.921875 175.617188 91.765625 C 174.667969 91.734375 174.058594 91.777344 173.183594 92.179688 C 172.171875 93.101562 171.554688 94.039062 171.109375 95.335938 C 170.234375 98.410156 170.28125 101.488281 170.464844 104.652344 C 170.609375 107.144531 170.65625 109.636719 170.671875 112.136719 C 170.675781 112.539062 170.679688 112.945312 170.683594 113.347656 C 170.738281 117.5 170.738281 117.5 169.902344 119.503906 L 169.699219 120.015625 C 169.070312 121.523438 167.917969 122.640625 166.796875 123.800781 L 166.355469 124.265625 C 165.496094 125.140625 164.59375 125.949219 163.664062 126.75 C 163.269531 127.097656 162.894531 127.460938 162.53125 127.839844 L 162.027344 128.332031 L 161.546875 128.332031 C 161.199219 127.636719 161.285156 127.019531 161.285156 126.242188 L 161.289062 125.765625 C 161.289062 125.257812 161.292969 124.753906 161.292969 124.246094 C 161.296875 123.90625 161.296875 123.5625 161.296875 123.21875 C 161.300781 122.378906 161.304688 121.539062 161.308594 120.699219 L 160.929688 121.03125 C 158.492188 123.175781 156.371094 124.503906 153.195312 125.230469 C 151.449219 125.480469 149.832031 125.113281 148.183594 124.515625 C 146.335938 123.757812 144.914062 122.464844 143.652344 120.9375 C 143.34375 120.265625 143.34375 120.265625 143.171875 119.742188 L 142.847656 120.03125 C 142.324219 120.496094 141.792969 120.957031 141.265625 121.414062 L 140.644531 121.960938 C 139.042969 123.335938 137.429688 124.453125 135.335938 124.898438 C 133.34375 125.148438 131.253906 125.253906 129.332031 124.605469 C 127.910156 123.992188 126.777344 123.253906 125.773438 122.066406 C 124.097656 119.796875 123.367188 117.394531 122.957031 114.625 C 122.714844 112.460938 122.777344 110.253906 122.769531 108.078125 C 122.777344 101.042969 122.777344 101.042969 120.496094 94.464844 C 119.988281 93.636719 119.40625 93.066406 118.59375 92.539062 C 117.488281 91.976562 116.542969 91.589844 115.296875 91.570312 C 114.519531 91.785156 114.519531 91.785156 113.894531 92.285156 C 112.714844 93.847656 112.285156 95.574219 112.007812 97.484375 C 111.75 99.824219 111.824219 102.199219 111.8125 104.550781 C 111.808594 105.132812 111.804688 105.71875 111.796875 106.300781 C 111.785156 107.828125 111.777344 109.355469 111.769531 110.886719 C 111.757812 112.449219 111.746094 114.011719 111.734375 115.574219 C 111.710938 118.632812 111.691406 121.695312 111.671875 124.753906 C 110.988281 125.097656 110.398438 125.023438 109.632812 125.023438 L 109.164062 125.023438 C 108.835938 125.023438 108.507812 125.023438 108.179688 125.023438 C 107.679688 125.023438 107.183594 125.023438 106.683594 125.027344 C 106.363281 125.027344 106.046875 125.023438 105.726562 125.023438 L 104.847656 125.023438 C 104.035156 124.992188 104.035156 124.992188 102.605469 124.753906 L 102.367188 121.414062 C 101.699219 121.851562 101.039062 122.289062 100.398438 122.769531 C 98.652344 124.066406 96.878906 124.859375 94.730469 125.230469 C 93.113281 125.34375 91.710938 125.09375 90.195312 124.515625 C 88.542969 123.695312 87.289062 122.714844 86.210938 121.210938 C 85.832031 120.585938 85.585938 119.976562 85.421875 119.265625 L 84.960938 119.726562 L 84.628906 120.054688 C 84.332031 120.355469 84.039062 120.660156 83.746094 120.964844 C 82.097656 122.675781 80.386719 124.0625 78.109375 124.828125 C 75.882812 125.289062 73.40625 125.273438 71.222656 124.636719 C 69.171875 123.8125 67.558594 122.523438 66.121094 120.863281 C 64.136719 118.277344 63.242188 115.160156 62.8125 111.957031 C 62.621094 109.503906 62.695312 107.113281 63.230469 104.707031 L 63.363281 104.109375 C 64.230469 100.777344 66.296875 98.09375 68.628906 95.640625 C 71.792969 92.5625 75.726562 90.609375 79.613281 88.609375 C 85.804688 85.464844 85.804688 85.464844 90.671875 80.605469 C 91.09375 79.902344 91.492188 79.1875 91.867188 78.457031 L 92.582031 78.695312 C 92.851562 79.105469 92.851562 79.105469 93.089844 79.605469 L 93.328125 80.105469 C 93.855469 81.382812 93.777344 82.484375 93.65625 83.855469 C 93.417969 85.476562 92.824219 86.785156 91.867188 88.109375 C 90.921875 89.261719 89.820312 90.242188 88.707031 91.230469 C 88.152344 91.726562 87.613281 92.242188 87.09375 92.777344 C 87.828125 92.75 88.566406 92.71875 89.300781 92.6875 C 89.507812 92.679688 89.71875 92.671875 89.933594 92.664062 L 90.542969 92.636719 L 91.101562 92.613281 C 91.675781 92.53125 92.078125 92.34375 92.582031 92.0625 L 92.820312 92.300781 C 92.847656 92.789062 92.859375 93.277344 92.867188 93.765625 L 92.871094 94.230469 C 92.875 94.566406 92.878906 94.902344 92.882812 95.234375 C 92.886719 95.769531 92.894531 96.304688 92.902344 96.839844 C 92.914062 97.980469 92.929688 99.121094 92.941406 100.265625 C 92.980469 105.867188 92.980469 105.867188 93.167969 111.46875 L 93.191406 111.988281 C 93.292969 113.714844 93.640625 115.21875 94.445312 116.746094 C 95.066406 117.472656 95.53125 117.894531 96.398438 118.3125 C 97.414062 118.476562 98.339844 118.457031 99.324219 118.136719 C 100.363281 117.65625 101.152344 117.050781 101.890625 116.164062 C 102.339844 115.242188 102.425781 114.496094 102.429688 113.472656 L 102.4375 112.574219 L 102.4375 112.09375 C 102.441406 111.597656 102.441406 111.101562 102.449219 110.601562 C 102.460938 109.1875 102.46875 107.769531 102.476562 106.355469 C 102.480469 105.488281 102.484375 104.617188 102.496094 103.75 C 102.496094 103.421875 102.5 103.09375 102.5 102.765625 C 102.5 99.898438 102.953125 97.464844 104.296875 94.917969 C 106.410156 91.617188 110.101562 89.578125 113.328125 87.523438 C 114.835938 86.554688 116.320312 85.515625 117.582031 84.238281 C 118.117188 83.945312 118.117188 83.945312 119.011719 83.964844 C 120.078125 84.148438 120.96875 84.5625 121.917969 85.066406 L 122.425781 85.328125 C 125.273438 86.824219 127.304688 88.464844 129.042969 91.203125 C 131.335938 94.984375 131.890625 99.570312 131.988281 103.921875 C 131.992188 104.335938 132 104.753906 132.007812 105.171875 L 132.019531 105.816406 C 132.03125 106.707031 132.042969 107.59375 132.054688 108.480469 C 132.058594 112.695312 132.058594 112.695312 133.375 116.65625 C 133.824219 117.296875 134.148438 117.683594 134.820312 118.074219 C 135.804688 118.398438 136.65625 118.421875 137.683594 118.3125 C 138.71875 118.054688 139.617188 117.742188 140.4375 117.046875 C 140.859375 116.613281 141.191406 116.207031 141.503906 115.6875 C 141.699219 114.816406 141.683594 113.976562 141.664062 113.085938 L 141.667969 112.308594 C 141.664062 111.464844 141.652344 110.625 141.644531 109.78125 C 141.640625 109.195312 141.636719 108.609375 141.636719 108.023438 C 141.632812 106.480469 141.617188 104.941406 141.601562 103.402344 C 141.585938 101.828125 141.578125 100.257812 141.574219 98.683594 C 141.558594 95.601562 141.53125 92.519531 141.503906 89.433594 L 140.648438 89.398438 L 139.535156 89.347656 C 139.347656 89.339844 139.164062 89.332031 138.972656 89.324219 C 138.21875 89.285156 137.570312 89.238281 136.851562 88.992188 L 136.492188 88.71875 C 136.214844 87.886719 136.210938 87.210938 136.207031 86.332031 L 136.199219 85.4375 C 136.253906 84.664062 136.253906 84.664062 136.730469 83.945312 C 137.222656 83.84375 137.222656 83.84375 137.820312 83.824219 L 138.46875 83.800781 L 139.144531 83.78125 L 139.828125 83.757812 C 140.386719 83.738281 140.945312 83.722656 141.503906 83.707031 L 141.511719 83.160156 C 141.535156 81.453125 141.558594 79.746094 141.582031 78.039062 C 141.597656 77.160156 141.609375 76.285156 141.621094 75.40625 C 141.632812 74.558594 141.644531 73.714844 141.660156 72.867188 C 141.664062 72.542969 141.667969 72.222656 141.671875 71.898438 C 141.679688 71.445312 141.683594 70.992188 141.691406 70.542969 L 141.703125 69.761719 C 141.742188 69.152344 141.742188 69.152344 141.980469 68.675781 C 142.375 68.589844 142.773438 68.507812 143.171875 68.433594 C 143.492188 68.277344 143.808594 68.117188 144.128906 67.957031 C 144.574219 67.78125 145.023438 67.609375 145.46875 67.4375 C 147.199219 66.71875 148.75 65.832031 149.972656 64.394531 Z M 80.515625 96.460938 L 79.75 96.890625 C 77.109375 98.410156 75.066406 100.421875 73.492188 103.039062 C 72.347656 105.519531 71.863281 107.707031 72.058594 110.4375 C 72.320312 112.359375 72.722656 114.226562 73.804688 115.863281 C 74.554688 116.808594 75.316406 117.464844 76.355469 118.074219 C 77.453125 118.417969 78.554688 118.429688 79.695312 118.3125 C 80.429688 118.109375 81 117.820312 81.605469 117.355469 C 82.457031 116.449219 83.164062 115.457031 83.511719 114.253906 C 83.730469 113.164062 83.78125 112.128906 83.78125 111.015625 L 83.78125 110.488281 C 83.777344 109.914062 83.777344 109.339844 83.777344 108.765625 L 83.773438 107.570312 C 83.773438 106.523438 83.769531 105.472656 83.769531 104.425781 C 83.765625 103.355469 83.765625 102.285156 83.765625 101.214844 C 83.761719 99.121094 83.757812 97.023438 83.753906 94.925781 C 82.628906 94.925781 81.464844 95.914062 80.515625 96.460938 " fill-opacity="1" fill-rule="nonzero"/><path fill="#0c383f" d="M 260.480469 42.871094 C 265.972656 44.390625 271.398438 45.746094 277.066406 46.40625 C 277.65625 46.476562 278.246094 46.550781 278.835938 46.621094 C 279.21875 46.667969 279.601562 46.714844 279.984375 46.761719 C 281.082031 46.890625 282.175781 47.046875 283.269531 47.214844 C 287.976562 47.886719 292.78125 47.730469 297.527344 47.734375 L 298.117188 47.734375 C 305.046875 47.738281 311.929688 47.523438 318.84375 47.007812 C 319.523438 46.957031 320.203125 46.910156 320.886719 46.863281 C 325.132812 46.558594 329.375 46.238281 333.609375 45.765625 L 334.25 45.695312 C 338.089844 45.273438 341.917969 44.785156 345.746094 44.285156 C 347.597656 44.042969 349.453125 43.816406 351.308594 43.617188 C 353.308594 43.402344 355.292969 43.105469 357.277344 42.78125 C 359.722656 42.386719 362.171875 42.023438 364.628906 41.707031 C 364.546875 42.15625 364.546875 42.15625 364.390625 42.664062 C 363.824219 43.097656 363.824219 43.097656 363.066406 43.542969 L 362.644531 43.789062 C 362.347656 43.964844 362.046875 44.136719 361.746094 44.308594 C 361.304688 44.5625 360.867188 44.820312 360.425781 45.082031 C 356.871094 47.15625 353.117188 48.90625 349.320312 50.492188 C 348.742188 50.734375 348.167969 50.988281 347.597656 51.253906 C 344.648438 52.566406 341.550781 53.570312 338.488281 54.597656 C 337.863281 54.804688 337.242188 55.019531 336.617188 55.230469 L 335.410156 55.636719 L 334.851562 55.828125 C 333.847656 56.160156 333.011719 56.335938 331.9375 56.265625 L 331.9375 56.742188 C 325.753906 58.363281 319.566406 59.917969 313.277344 61.082031 L 312.566406 61.214844 C 310.136719 61.664062 307.714844 62.070312 305.257812 62.324219 C 304.5625 62.398438 303.964844 62.488281 303.300781 62.707031 C 302.644531 62.757812 301.988281 62.796875 301.332031 62.828125 C 300.976562 62.84375 300.621094 62.863281 300.269531 62.878906 L 299.792969 62.902344 C 299.355469 62.9375 298.921875 62.996094 298.488281 63.0625 C 297.421875 63.207031 296.367188 63.269531 295.292969 63.316406 L 294.632812 63.347656 C 292.179688 63.449219 289.734375 63.480469 287.28125 63.484375 L 286.570312 63.484375 C 279.78125 63.484375 272.941406 63.027344 266.3125 61.515625 C 265.972656 61.441406 265.628906 61.363281 265.289062 61.289062 C 264.375 61.089844 263.464844 60.886719 262.554688 60.679688 C 262.207031 60.601562 261.859375 60.523438 261.507812 60.449219 C 259.28125 59.949219 257.089844 59.375 254.898438 58.734375 C 253.785156 58.410156 252.667969 58.097656 251.546875 57.796875 L 250.84375 57.609375 C 250.402344 57.492188 249.960938 57.375 249.519531 57.261719 C 248.269531 56.929688 247.046875 56.507812 245.855469 56.003906 C 244.671875 55.535156 243.550781 55.316406 242.285156 55.296875 C 241.53125 55.535156 241.289062 55.648438 240.761719 56.191406 C 237.710938 60.210938 236.71875 66.644531 236.074219 71.515625 C 235.933594 72.527344 235.78125 73.539062 235.632812 74.550781 L 235.539062 75.175781 L 235.449219 75.769531 L 235.375 76.292969 L 235.289062 76.789062 L 235.21875 77.300781 L 235.050781 77.742188 C 234.632812 78.011719 234.632812 78.011719 234.089844 78.222656 L 233.488281 78.46875 L 232.84375 78.726562 C 229.925781 79.960938 227.773438 81.492188 225.742188 83.945312 L 225.027344 83.945312 C 225.257812 82.027344 225.488281 80.109375 225.722656 78.1875 C 225.832031 77.296875 225.941406 76.40625 226.046875 75.511719 C 226.464844 72.039062 226.890625 68.570312 227.4375 65.113281 L 227.550781 64.417969 C 228.550781 58.335938 230.410156 52.96875 234.332031 48.152344 C 235.171875 47.15625 236.046875 46.214844 236.957031 45.289062 L 237.367188 44.859375 C 239.683594 42.65625 242.992188 41.53125 246.027344 40.753906 C 250.90625 39.789062 255.824219 41.582031 260.480469 42.871094 " fill-opacity="1" fill-rule="nonzero"/><path fill="#8f8f8f" d="M 54.160156 58.414062 C 54.8125 58.671875 54.8125 58.671875 55.59375 59.128906 C 55.992188 59.660156 56.300781 60.128906 56.605469 60.710938 L 56.855469 61.164062 C 57.460938 62.3125 57.875 63.324219 57.980469 64.617188 L 58.046875 65.328125 C 58.144531 67.375 57.71875 69.003906 56.785156 70.820312 C 53.628906 75.992188 48.277344 78.761719 43.15625 81.648438 C 42.429688 82.058594 41.703125 82.476562 40.976562 82.894531 C 39.925781 83.5 38.867188 84.089844 37.800781 84.664062 C 34.152344 86.644531 30.296875 88.96875 28.042969 92.566406 C 27.507812 93.476562 27.222656 94.382812 26.957031 95.402344 L 27.351562 95.335938 C 34.902344 94.117188 42.464844 94.363281 49.730469 96.878906 C 51.441406 97.554688 53.128906 98.398438 54.636719 99.457031 L 54.636719 99.9375 L 55.054688 100.078125 C 55.8125 100.550781 56.152344 101.214844 56.578125 101.980469 L 56.828125 102.402344 C 58.007812 104.480469 58.078125 106.640625 58.066406 108.980469 C 58 112.1875 57.023438 115.082031 55.414062 117.84375 C 54.519531 119.242188 53.402344 120.460938 52.25 121.652344 L 51.714844 122.207031 C 50.1875 123.667969 48.363281 124.691406 46.523438 125.707031 L 45.703125 126.164062 C 42.761719 127.714844 39.675781 128.699219 36.425781 129.363281 L 35.867188 129.476562 C 30.257812 130.542969 23.390625 130.683594 17.886719 129.050781 L 16.976562 128.789062 C 13.445312 127.644531 10.25 125.65625 7.746094 122.90625 C 5.722656 120.386719 4.308594 117.214844 3.808594 114.015625 C 3.292969 109.660156 3.769531 105.40625 5.449219 101.335938 C 6.363281 99.265625 7.425781 97.238281 9.058594 95.640625 C 9.667969 95.21875 9.667969 95.21875 10.25 94.925781 L 10.96875 94.925781 C 10.835938 96.089844 10.449219 97.007812 9.921875 98.042969 C 8.445312 101.117188 8.117188 104.078125 8.292969 107.460938 C 8.496094 109.855469 9.433594 112.242188 10.726562 114.253906 C 11.890625 115.628906 11.890625 115.628906 13.351562 116.640625 L 13.351562 117.117188 L 13.722656 117.296875 C 14.1875 117.535156 14.644531 117.777344 15.101562 118.027344 C 19.355469 120.296875 23.929688 121.074219 28.742188 120.980469 C 35.480469 120.628906 42.34375 118.90625 48.058594 115.222656 C 49.835938 113.980469 51.691406 112.617188 52.730469 110.675781 C 53.058594 109.820312 53.03125 108.957031 52.96875 108.050781 C 52.648438 107.160156 52.320312 106.683594 51.625 106.039062 C 50.792969 105.367188 49.90625 104.902344 48.941406 104.453125 L 48.40625 104.207031 C 43.089844 101.824219 36.507812 101.390625 30.742188 101.925781 C 28.902344 102.128906 27.109375 102.484375 25.304688 102.894531 C 24.394531 103.070312 23.582031 103.09375 22.660156 103.039062 C 21.003906 99.484375 20.167969 96.003906 20.511719 92.0625 C 20.894531 89.273438 21.90625 86.535156 23.605469 84.28125 C 24.144531 83.667969 24.710938 83.09375 25.285156 82.515625 C 25.511719 82.265625 25.738281 82.011719 25.964844 81.761719 C 29.777344 77.597656 34.882812 74.976562 39.828125 72.398438 C 43.40625 70.519531 46.976562 68.632812 50.105469 66.050781 L 50.671875 65.585938 C 51.832031 64.605469 52.886719 63.667969 53.445312 62.230469 C 53.769531 60.972656 53.96875 59.695312 54.160156 58.414062 " fill-opacity="1" fill-rule="nonzero"/><path fill="#0f3135" d="M 320.871094 85.355469 L 321.414062 85.355469 C 321.988281 85.359375 322.5625 85.359375 323.136719 85.363281 C 323.527344 85.363281 323.914062 85.367188 324.304688 85.367188 C 325.257812 85.371094 326.210938 85.375 327.164062 85.378906 C 327.457031 85.960938 327.445312 86.359375 327.457031 87.007812 L 327.476562 87.746094 L 327.496094 88.5625 L 327.515625 89.414062 C 327.535156 90.1875 327.554688 90.960938 327.570312 91.734375 C 327.589844 92.542969 327.609375 93.351562 327.628906 94.160156 C 327.667969 95.691406 327.703125 97.21875 327.738281 98.75 C 327.78125 100.492188 327.820312 102.234375 327.863281 103.976562 C 327.949219 107.5625 328.035156 111.148438 328.117188 114.730469 L 328.597656 114.730469 L 328.859375 113.882812 C 329.363281 112.375 329.984375 110.917969 330.601562 109.457031 C 330.800781 108.980469 331 108.503906 331.199219 108.023438 C 331.933594 106.277344 332.703125 104.542969 333.511719 102.828125 C 334.007812 101.777344 334.472656 100.714844 334.90625 99.636719 L 335.320312 98.617188 L 335.535156 98.089844 C 336.550781 95.601562 337.589844 93.128906 338.734375 90.695312 C 339.011719 90.097656 339.277344 89.496094 339.539062 88.890625 L 339.765625 88.363281 C 339.914062 88.019531 340.058594 87.679688 340.203125 87.335938 C 340.492188 86.660156 340.71875 86.140625 341.242188 85.617188 C 342.585938 85.144531 344.136719 85.316406 345.539062 85.304688 L 346.46875 85.285156 L 347.359375 85.277344 L 348.171875 85.265625 C 348.878906 85.378906 348.878906 85.378906 349.4375 85.699219 C 350.074219 86.710938 350.046875 87.738281 350.109375 88.910156 L 350.160156 89.730469 C 350.21875 90.664062 350.265625 91.601562 350.3125 92.539062 L 350.335938 93.0625 C 350.46875 95.792969 350.574219 98.527344 350.675781 101.257812 C 350.707031 102.085938 350.738281 102.910156 350.773438 103.734375 C 350.804688 104.542969 350.835938 105.351562 350.867188 106.160156 C 350.878906 106.539062 350.894531 106.917969 350.910156 107.296875 C 351.007812 109.777344 351.046875 112.25 351.027344 114.730469 L 351.503906 114.730469 L 351.695312 114.132812 C 352.011719 113.21875 352.371094 112.328125 352.746094 111.441406 L 352.96875 110.902344 C 353.207031 110.332031 353.445312 109.765625 353.683594 109.199219 L 354.144531 108.089844 C 354.773438 106.589844 355.402344 105.085938 356.039062 103.585938 C 357.195312 100.851562 358.3125 98.101562 359.410156 95.34375 L 360.617188 92.316406 C 360.980469 91.410156 361.339844 90.5 361.691406 89.589844 L 361.882812 89.097656 C 362.050781 88.667969 362.214844 88.238281 362.382812 87.804688 C 362.742188 87.007812 363.15625 86.324219 363.675781 85.617188 C 364.394531 85.257812 365.136719 85.347656 365.921875 85.355469 L 366.449219 85.355469 C 367.007812 85.359375 367.5625 85.359375 368.121094 85.363281 C 368.496094 85.363281 368.875 85.367188 369.253906 85.367188 C 370.175781 85.371094 371.101562 85.375 372.027344 85.378906 C 371.871094 86.632812 371.605469 87.566406 371.042969 88.703125 C 370.890625 89.019531 370.738281 89.332031 370.589844 89.648438 L 370.351562 90.136719 C 369.972656 90.941406 369.621094 91.761719 369.269531 92.582031 C 368.796875 93.675781 368.308594 94.746094 367.761719 95.804688 C 367.097656 97.101562 366.527344 98.429688 365.957031 99.773438 C 364.71875 102.695312 363.378906 105.554688 361.953125 108.390625 C 361.265625 109.757812 360.628906 111.140625 360.054688 112.558594 C 359.597656 113.683594 359.136719 114.777344 358.53125 115.835938 C 358.019531 116.71875 357.640625 117.609375 357.273438 118.5625 C 356.917969 119.460938 356.542969 120.347656 356.160156 121.234375 L 355.953125 121.722656 C 355.425781 122.933594 354.835938 124.050781 353.890625 124.992188 C 353.191406 125.039062 352.515625 125.054688 351.816406 125.046875 L 351.195312 125.046875 C 350.761719 125.046875 350.328125 125.042969 349.890625 125.042969 C 349.226562 125.039062 348.558594 125.039062 347.890625 125.039062 L 346.628906 125.03125 L 346.019531 125.03125 C 345.539062 125.027344 345.0625 125.011719 344.585938 124.992188 L 344.347656 124.753906 C 344.304688 124.25 344.277344 123.742188 344.257812 123.234375 L 344.238281 122.753906 C 344.214844 122.226562 344.195312 121.695312 344.175781 121.167969 L 344.128906 120.058594 C 344.089844 119.078125 344.050781 118.097656 344.011719 117.121094 C 343.949219 115.566406 343.886719 114.011719 343.824219 112.460938 C 343.800781 111.921875 343.78125 111.386719 343.761719 110.847656 C 343.683594 108.953125 343.59375 107.058594 343.46875 105.164062 C 343.355469 103.378906 343.367188 101.589844 343.375 99.800781 C 343.378906 99.464844 343.378906 99.125 343.378906 98.789062 C 343.382812 97.976562 343.386719 97.167969 343.390625 96.355469 L 342.914062 96.355469 L 342.734375 97.207031 C 342.527344 98.046875 342.207031 98.695312 341.753906 99.4375 C 340.851562 101.097656 340.3125 102.972656 339.691406 104.753906 C 339.273438 105.941406 338.800781 107.046875 338.191406 108.152344 C 337.945312 108.671875 337.769531 109.164062 337.59375 109.710938 C 337.109375 111.207031 336.472656 112.632812 335.84375 114.074219 C 335.71875 114.371094 335.589844 114.667969 335.460938 114.960938 C 335.269531 115.410156 335.074219 115.855469 334.882812 116.304688 C 334.480469 117.226562 334.085938 118.152344 333.691406 119.078125 L 333.402344 119.757812 C 333.226562 120.171875 333.050781 120.582031 332.878906 120.996094 C 331.492188 124.242188 331.492188 124.242188 330.742188 124.992188 C 329.96875 125.261719 329.226562 125.261719 328.414062 125.261719 L 327.605469 125.265625 L 326.761719 125.261719 L 325.933594 125.265625 C 324.414062 125.261719 322.9375 125.214844 321.4375 124.992188 L 321.199219 124.753906 C 321.113281 124.082031 321.039062 123.40625 320.980469 122.730469 L 320.917969 122.058594 C 320.628906 118.835938 320.414062 115.601562 320.191406 112.371094 C 320.128906 111.441406 320.0625 110.511719 320 109.582031 L 319.761719 106.160156 C 319.601562 103.84375 319.4375 101.53125 319.273438 99.21875 C 319.195312 98.117188 319.117188 97.019531 319.039062 95.917969 C 318.996094 95.332031 318.957031 94.746094 318.914062 94.160156 C 318.496094 88.398438 318.496094 88.398438 318.574219 85.617188 C 319.304688 85.25 320.070312 85.351562 320.871094 85.355469 " fill-opacity="1" fill-rule="nonzero"/><path fill="#0c383f" d="M 303.945312 85.710938 C 306.097656 86.757812 307.929688 88.078125 309.351562 90.027344 C 310.972656 92.511719 311.816406 95.320312 312.128906 98.265625 C 312.253906 101.214844 312.304688 104.203125 311.652344 107.09375 L 311.496094 107.800781 C 311.320312 108.523438 311.132812 109.242188 310.9375 109.957031 C 310.863281 110.238281 310.792969 110.515625 310.71875 110.804688 C 310.316406 112.324219 309.871094 113.660156 309.050781 115.007812 C 308.738281 115.53125 308.515625 116.066406 308.3125 116.640625 L 307.835938 116.640625 L 307.597656 117.59375 L 307.117188 117.59375 L 306.980469 118.207031 C 306.535156 119.28125 305.886719 119.914062 305.058594 120.710938 L 304.632812 121.144531 C 303.660156 122.101562 302.632812 122.96875 301.390625 123.5625 L 300.675781 123.5625 L 300.675781 124.039062 C 300.09375 124.269531 299.511719 124.5 298.929688 124.722656 L 298.445312 124.917969 C 296.082031 125.828125 293.722656 126.039062 291.203125 126.035156 L 290.386719 126.039062 C 288.113281 126.007812 285.796875 125.785156 283.730469 124.753906 L 283.730469 124.277344 L 283.199219 124.203125 C 282.042969 123.917969 281.253906 123.160156 280.390625 122.367188 C 278.355469 120.191406 277.160156 117.730469 276.421875 114.871094 C 275.605469 110.9375 275.921875 106.6875 276.8125 102.800781 L 276.929688 102.265625 C 278.035156 97.507812 280.09375 93.578125 283.429688 89.992188 L 283.96875 89.4375 L 284.457031 88.929688 C 286.585938 86.882812 289.273438 85.644531 292.085938 84.828125 C 295.972656 83.929688 300.253906 84.199219 303.945312 85.710938 M 291.84375 92.777344 C 291.085938 93.371094 290.351562 93.972656 289.699219 94.6875 L 289.699219 95.164062 L 289.21875 95.164062 L 289.21875 95.878906 L 288.742188 95.878906 L 288.742188 96.59375 L 288.265625 96.59375 L 288.265625 97.3125 L 287.789062 97.3125 C 285.789062 102.117188 284.539062 106.851562 284.925781 112.105469 C 285.195312 113.664062 285.664062 115 286.582031 116.296875 C 287.296875 117.152344 288.027344 117.855469 289.054688 118.324219 C 290.433594 118.808594 291.875 118.882812 293.316406 118.683594 C 295.160156 118.269531 296.53125 117.582031 297.945312 116.34375 L 298.527344 115.6875 L 298.914062 115.265625 C 301.320312 112.453125 302.25 108.816406 302.960938 105.261719 C 303.167969 104.121094 303.277344 103.003906 303.300781 101.84375 L 303.328125 101.128906 C 303.378906 98.894531 303.15625 96.714844 302.167969 94.6875 C 301.53125 93.667969 300.710938 93.082031 299.695312 92.476562 C 298.152344 91.734375 296.574219 91.65625 294.894531 91.734375 C 293.699219 91.851562 292.832031 92.09375 291.84375 92.777344 M 251.3125 80.066406 C 252.019531 80.070312 252.730469 80.066406 253.441406 80.0625 C 253.894531 80.0625 254.351562 80.0625 254.804688 80.066406 L 255.445312 80.0625 L 256.035156 80.066406 L 256.550781 80.066406 C 257.003906 80.128906 257.003906 80.128906 257.71875 80.605469 C 257.640625 82.386719 257.492188 84.132812 257.167969 85.886719 L 257.007812 86.765625 C 256.765625 87.527344 256.765625 87.527344 256.378906 88.042969 C 255.8125 88.480469 255.8125 88.480469 255.039062 88.605469 L 254.128906 88.609375 L 253.632812 88.617188 C 253.105469 88.625 252.578125 88.628906 252.050781 88.628906 C 247.347656 88.667969 242.699219 88.949219 238.460938 91.242188 C 236.476562 92.476562 235.058594 93.871094 233.855469 95.878906 L 233.53125 96.410156 C 232.074219 99.035156 231.5625 102.179688 230.851562 105.066406 C 229.867188 109.054688 228.636719 112.839844 227.121094 116.652344 C 226.964844 117.042969 226.816406 117.429688 226.667969 117.820312 C 225.707031 120.316406 224.414062 122.65625 223.117188 124.992188 L 222.640625 124.992188 L 222.460938 125.503906 C 222.128906 126.265625 221.714844 126.863281 221.222656 127.527344 L 220.722656 128.207031 C 220.347656 128.691406 219.980469 129.109375 219.539062 129.527344 L 219 130.0625 L 216.675781 132.390625 L 216.214844 132.863281 C 215.703125 133.359375 215.175781 133.800781 214.617188 134.238281 L 214.054688 134.683594 L 213.570312 135.015625 L 213.09375 135.015625 L 213.09375 135.492188 C 212.707031 135.746094 212.304688 135.984375 211.902344 136.207031 L 211.230469 136.621094 C 207.820312 138.652344 204.171875 140.097656 200.417969 141.371094 L 199.667969 141.625 L 198.96875 141.855469 L 198.347656 142.0625 L 197.820312 142.175781 L 197.105469 141.9375 C 197.335938 141.765625 197.570312 141.59375 197.808594 141.417969 C 202.566406 137.890625 207.367188 134.277344 210.886719 129.453125 C 211.097656 129.167969 211.3125 128.882812 211.53125 128.605469 C 212.421875 127.445312 213.1875 126.246094 213.914062 124.976562 L 214.261719 124.375 C 217.65625 118.375 219.800781 111.757812 221.304688 105.050781 L 221.460938 104.367188 C 221.714844 103.230469 221.964844 102.09375 222.207031 100.957031 C 224.003906 92.664062 224.003906 92.664062 226.21875 89.675781 L 226.605469 89.132812 C 228.925781 86.003906 231.78125 83.800781 235.332031 82.242188 C 236.546875 81.746094 237.785156 81.410156 239.0625 81.113281 L 239.652344 80.976562 C 243.484375 80.164062 247.40625 80.050781 251.3125 80.066406 M 271.160156 69.34375 L 271.984375 69.335938 L 272.78125 69.335938 L 273.511719 69.332031 C 274.222656 69.394531 274.738281 69.558594 275.378906 69.867188 L 275.617188 70.105469 C 275.59375 72.222656 275.207031 74.253906 274.738281 76.308594 C 274.609375 76.898438 274.476562 77.488281 274.347656 78.074219 L 274.148438 78.984375 C 273.824219 80.445312 273.519531 81.914062 273.214844 83.378906 L 273.035156 84.25 C 272.539062 86.664062 272.074219 89.085938 271.613281 91.507812 C 270.851562 95.476562 270.042969 99.433594 269.1875 103.382812 C 268.890625 104.746094 268.605469 106.113281 268.332031 107.484375 C 268.144531 108.425781 267.9375 109.363281 267.726562 110.300781 L 267.601562 110.871094 C 267.4375 111.613281 267.269531 112.339844 267.027344 113.0625 C 266.953125 113.460938 266.886719 113.859375 266.824219 114.261719 C 266.527344 116.105469 266.179688 117.9375 265.828125 119.773438 C 265.75 120.164062 265.675781 120.554688 265.601562 120.949219 C 265.496094 121.519531 265.386719 122.09375 265.273438 122.667969 L 265.175781 123.199219 C 265.015625 124.011719 264.867188 124.53125 264.402344 125.230469 C 263.800781 125.300781 263.257812 125.324219 262.65625 125.316406 L 262.136719 125.320312 C 261.769531 125.316406 261.40625 125.316406 261.039062 125.3125 C 260.484375 125.304688 259.925781 125.308594 259.367188 125.308594 C 259.011719 125.308594 258.65625 125.304688 258.300781 125.304688 L 257.796875 125.304688 C 257.371094 125.296875 256.949219 125.265625 256.527344 125.230469 L 255.8125 124.753906 C 255.945312 122.921875 256.273438 121.164062 256.667969 119.371094 L 256.855469 118.5 C 256.988281 117.882812 257.121094 117.265625 257.257812 116.648438 C 257.613281 115.011719 257.964844 113.371094 258.316406 111.734375 L 258.425781 111.230469 C 259.226562 107.492188 259.980469 103.742188 260.722656 99.992188 L 260.984375 98.652344 L 261.117188 97.984375 C 261.535156 95.871094 261.976562 93.757812 262.414062 91.648438 C 262.847656 89.550781 263.277344 87.453125 263.703125 85.355469 L 263.886719 84.453125 C 264.128906 83.25 264.375 82.042969 264.617188 80.835938 C 264.96875 79.101562 265.320312 77.371094 265.679688 75.636719 C 265.824219 74.933594 265.960938 74.230469 266.101562 73.527344 L 266.339844 72.359375 L 266.4375 71.84375 C 266.597656 71.085938 266.765625 70.609375 267.265625 70.007812 C 268.417969 69.09375 269.742188 69.347656 271.160156 69.34375 " fill-opacity="1" fill-rule="nonzero"/><path fill="#8f8f8f" d="M 200.683594 84.425781 L 201.402344 84.664062 L 201.402344 85.074219 C 201.421875 88.394531 201.445312 91.714844 201.46875 95.039062 C 201.480469 96.644531 201.492188 98.25 201.503906 99.855469 C 201.511719 101.40625 201.523438 102.960938 201.535156 104.511719 C 201.539062 105.101562 201.542969 105.691406 201.546875 106.28125 C 201.371094 111.296875 201.371094 111.296875 202.59375 116.074219 L 203.070312 116.878906 L 203.28125 117.386719 L 203.550781 117.832031 C 204.570312 118.320312 205.773438 118.359375 206.890625 118.3125 C 208.042969 118.160156 208.828125 117.707031 209.761719 117.03125 C 210.175781 116.6875 210.527344 116.335938 210.886719 115.941406 L 211.425781 115.445312 C 212.199219 115.445312 212.609375 115.679688 213.289062 116.058594 L 213.808594 116.402344 C 213.734375 117.292969 213.582031 117.820312 213.101562 118.585938 C 212.902344 118.84375 212.703125 119.101562 212.496094 119.355469 L 212.171875 119.765625 C 210.402344 121.949219 208.304688 123.550781 205.742188 124.710938 C 204.066406 125.332031 202.449219 125.390625 200.683594 125.121094 C 199.007812 124.757812 197.699219 124.199219 196.390625 123.082031 C 194.644531 121.433594 193.570312 119.605469 192.886719 117.3125 C 192.09375 114.027344 192.019531 110.785156 192.023438 107.425781 L 192.019531 106.027344 C 192.019531 105.058594 192.015625 104.089844 192.019531 103.117188 C 192.019531 101.878906 192.015625 100.640625 192.011719 99.40625 C 192.007812 98.445312 192.007812 97.484375 192.007812 96.527344 C 192.007812 96.070312 192.007812 95.613281 192.003906 95.15625 C 192 94.519531 192.003906 93.882812 192.003906 93.242188 L 192 92.679688 C 192.011719 91.351562 192.269531 90.179688 192.808594 88.957031 C 193.941406 87.691406 195.734375 87.21875 197.289062 86.660156 C 198.523438 86.136719 199.730469 85.378906 200.683594 84.425781 M 36.738281 133.105469 C 37.148438 133.160156 37.148438 133.160156 37.695312 133.34375 C 38.238281 133.796875 38.238281 133.796875 38.824219 134.378906 L 39.464844 135.015625 L 40.125 135.6875 L 40.796875 136.347656 L 41.433594 136.988281 L 42.015625 137.574219 C 42.46875 138.117188 42.46875 138.117188 42.683594 138.621094 L 42.707031 139.074219 C 42.308594 139.597656 41.875 140.097656 41.410156 140.5625 L 41.011719 140.976562 C 40.746094 141.253906 40.480469 141.523438 40.214844 141.796875 C 39.890625 142.125 39.574219 142.457031 39.261719 142.792969 C 38.113281 143.996094 38.113281 143.996094 37.476562 144.3125 L 36.980469 144.324219 C 36.429688 143.933594 36.429688 143.933594 35.84375 143.367188 L 35.214844 142.769531 L 34.59375 142.175781 C 34.246094 141.871094 33.898438 141.566406 33.546875 141.265625 C 33.039062 140.828125 32.597656 140.40625 32.144531 139.90625 L 31.730469 139.550781 C 31.253906 139.59375 31.253906 139.59375 30.773438 139.789062 C 30.261719 140.210938 29.761719 140.65625 29.28125 141.117188 L 28.867188 141.503906 C 27.929688 142.382812 27.035156 143.304688 26.1875 144.269531 L 25.761719 144.5625 C 25.164062 144.535156 25.164062 144.535156 24.570312 144.324219 C 24.15625 143.992188 24.15625 143.992188 23.777344 143.578125 C 23.195312 142.953125 22.582031 142.367188 21.929688 141.816406 C 21.039062 141.050781 20.300781 140.222656 19.558594 139.3125 C 20.75 137.925781 21.984375 136.582031 23.242188 135.253906 L 23.769531 134.695312 C 24.195312 134.242188 24.621094 133.792969 25.046875 133.34375 C 25.5 133.429688 25.5 133.429688 26 133.582031 C 26.410156 134.167969 26.410156 134.167969 26.835938 134.910156 C 27.738281 136.328125 28.714844 137.144531 30.121094 138.039062 C 30.796875 138.425781 30.796875 138.425781 31.730469 138.355469 C 32.136719 138.085938 32.136719 138.085938 32.492188 137.691406 L 32.917969 137.265625 L 33.355469 136.804688 L 33.804688 136.34375 C 34.820312 135.296875 35.8125 134.230469 36.738281 133.105469 M 196.628906 69.390625 C 197.605469 69.9375 198.425781 70.550781 199.253906 71.300781 L 199.253906 71.777344 C 199.386719 71.832031 199.515625 71.886719 199.652344 71.941406 C 200.363281 72.339844 200.878906 72.835938 201.460938 73.402344 L 202.105469 74.019531 C 202.59375 74.640625 202.59375 74.640625 202.746094 75.226562 C 202.59375 75.832031 202.59375 75.832031 202.035156 76.515625 C 201.785156 76.757812 201.535156 77 201.28125 77.234375 L 200.886719 77.613281 C 200.015625 78.453125 199.117188 79.261719 198.183594 80.03125 C 197.761719 80.394531 197.761719 80.394531 197.34375 81.082031 C 196.671875 80.773438 196.132812 80.429688 195.570312 79.949219 L 195.117188 79.558594 L 194.644531 79.144531 L 194.160156 78.722656 C 191.605469 76.460938 191.605469 76.460938 191.140625 75.59375 C 191.160156 75.136719 191.160156 75.136719 191.378906 74.640625 C 192.433594 73.261719 193.683594 72.066406 195.007812 70.949219 C 195.578125 70.457031 196.101562 69.929688 196.628906 69.390625 " fill-opacity="1" fill-rule="nonzero"/><path fill="#0e3e45" d="M 288.710938 47.667969 L 289.210938 47.675781 C 289.757812 47.683594 290.304688 47.691406 290.847656 47.703125 L 291.984375 47.71875 C 292.984375 47.734375 293.980469 47.75 294.976562 47.769531 C 295.992188 47.785156 297.011719 47.800781 298.027344 47.816406 C 300.023438 47.847656 302.019531 47.878906 304.015625 47.914062 L 304.253906 48.390625 C 303.996094 48.742188 303.996094 48.742188 303.539062 49.105469 C 302.820312 49.191406 302.820312 49.191406 301.925781 49.1875 L 301.429688 49.1875 C 300.890625 49.1875 300.351562 49.183594 299.816406 49.175781 C 299.441406 49.175781 299.066406 49.171875 298.695312 49.171875 C 297.710938 49.167969 296.730469 49.164062 295.746094 49.15625 C 294.742188 49.148438 293.738281 49.144531 292.738281 49.140625 C 290.769531 49.132812 288.800781 49.121094 286.835938 49.105469 L 286.355469 47.914062 C 287.191406 47.632812 287.828125 47.65625 288.710938 47.667969 M 26.238281 56.265625 L 26.957031 56.742188 C 27.121094 57.25 27.121094 57.25 27.195312 57.695312 L 26.660156 57.820312 C 24.96875 58.207031 23.28125 58.601562 21.59375 58.996094 C 20.722656 59.199219 19.855469 59.410156 18.988281 59.632812 L 18.472656 59.761719 C 18.007812 59.882812 17.539062 60.003906 17.074219 60.121094 C 16.21875 60.320312 16.21875 60.320312 15.339844 60.445312 C 14.664062 60.542969 14.109375 60.679688 13.472656 60.917969 C 12.550781 61.242188 11.699219 61.410156 10.726562 61.515625 L 10.726562 61.039062 L 11.613281 60.777344 C 12.722656 60.453125 13.832031 60.128906 14.941406 59.804688 C 15.414062 59.664062 15.890625 59.523438 16.363281 59.386719 C 17.058594 59.183594 17.75 58.980469 18.441406 58.777344 L 19.136719 58.574219 C 20.324219 58.21875 21.5 57.847656 22.667969 57.441406 L 23.367188 57.199219 C 23.804688 57.046875 24.242188 56.890625 24.679688 56.730469 L 25.269531 56.523438 L 25.785156 56.335938 Z M 158.683594 18.558594 L 158.921875 19.035156 C 157.457031 19.375 156.128906 19.542969 154.628906 19.515625 L 154.390625 19.753906 C 154.046875 19.804688 153.699219 19.839844 153.355469 19.871094 L 152.703125 19.933594 L 152.019531 19.992188 L 150.035156 20.171875 L 149.378906 20.230469 L 148.714844 20.289062 L 148.078125 20.347656 L 147.515625 20.402344 C 147.003906 20.46875 146.53125 20.574219 146.035156 20.707031 C 145.605469 20.789062 145.171875 20.871094 144.738281 20.945312 C 144.101562 21.058594 143.464844 21.175781 142.832031 21.300781 C 142.101562 21.445312 141.371094 21.582031 140.636719 21.707031 L 139.824219 21.851562 L 139.117188 21.902344 L 138.402344 21.421875 C 139.820312 20.976562 141.242188 20.730469 142.710938 20.5 L 143.484375 20.375 C 144.027344 20.289062 144.566406 20.207031 145.109375 20.121094 C 145.917969 19.992188 146.726562 19.863281 147.535156 19.734375 C 155.457031 18.480469 155.457031 18.480469 158.683594 18.558594 M 349.597656 88.71875 L 350.074219 88.71875 C 350.144531 89.898438 350.210938 91.078125 350.277344 92.257812 C 350.300781 92.65625 350.324219 93.054688 350.347656 93.453125 C 350.511719 96.253906 350.582031 99.039062 350.550781 101.84375 L 350.074219 101.84375 L 349.597656 102.320312 Z M 266.074219 73.925781 C 266.3125 74.34375 266.3125 74.34375 266.550781 74.878906 C 266.519531 75.539062 266.460938 76.195312 266.371094 76.847656 L 266.308594 77.371094 C 266.074219 79.203125 265.601562 80.902344 264.96875 82.632812 L 264.644531 83.523438 L 264.402344 84.183594 L 264.164062 84.183594 C 264.320312 81.984375 264.78125 79.863281 265.253906 77.710938 L 265.492188 76.605469 C 265.683594 75.710938 265.878906 74.816406 266.074219 73.925781 M 364.628906 41.707031 C 364.570312 42.140625 364.570312 42.140625 364.390625 42.664062 C 363.988281 43.09375 363.988281 43.09375 363.4375 43.378906 C 362.960938 43.300781 362.480469 43.222656 362.003906 43.140625 C 361.378906 43.121094 360.753906 43.117188 360.125 43.125 L 359.628906 43.128906 C 359.226562 43.132812 358.828125 43.136719 358.425781 43.140625 L 358.1875 42.664062 C 359.125 42.503906 360.066406 42.34375 361.007812 42.183594 L 361.816406 42.046875 L 362.59375 41.917969 L 363.308594 41.796875 C 363.914062 41.707031 363.914062 41.707031 364.628906 41.707031 M 74.921875 40.039062 L 75.398438 40.753906 L 74.671875 40.839844 C 73.753906 40.972656 72.886719 41.214844 72 41.484375 C 70.464844 41.945312 70.464844 41.945312 69.671875 41.945312 L 69.671875 42.421875 L 68.242188 42.421875 L 68 42.902344 C 67.269531 43.050781 67.269531 43.050781 66.570312 43.140625 L 66.570312 42.664062 C 67.566406 42.285156 68.566406 41.914062 69.5625 41.539062 C 69.902344 41.414062 70.242188 41.285156 70.582031 41.160156 C 71.070312 40.972656 71.558594 40.792969 72.046875 40.613281 L 72.9375 40.277344 C 73.664062 40.058594 74.171875 39.921875 74.921875 40.039062 M 306.164062 118.550781 L 306.640625 118.550781 C 306.25 119.550781 305.515625 120.214844 304.761719 120.949219 L 304.378906 121.332031 C 303 122.699219 303 122.699219 302.347656 123.082031 L 301.628906 122.84375 C 302.464844 121.980469 303.34375 121.191406 304.253906 120.40625 C 304.703125 120.007812 305.121094 119.59375 305.539062 119.160156 Z M 258.199219 113.0625 C 258.460938 113.863281 258.40625 114.429688 258.242188 115.253906 L 258.105469 115.949219 C 257.933594 116.757812 257.757812 117.5625 257.570312 118.363281 C 257.464844 118.792969 257.464844 118.792969 257.480469 119.265625 L 257.003906 119.265625 L 257.136719 119.667969 C 257.261719 120.316406 257.164062 120.78125 257.003906 121.414062 L 256.527344 121.414062 L 256.289062 122.367188 C 256.421875 120.375 256.816406 118.457031 257.242188 116.507812 L 257.441406 115.578125 C 257.800781 113.914062 257.800781 113.914062 257.957031 113.300781 Z M 264.640625 124.515625 L 264.402344 125.230469 L 260.105469 125.230469 L 259.867188 124.753906 L 261.984375 124.636719 L 262.59375 124.601562 L 263.714844 124.539062 C 264.023438 124.523438 264.332031 124.515625 264.640625 124.515625 M 31.328125 54.929688 L 31.730469 55.070312 L 31.25 55.546875 C 30.578125 55.699219 30.578125 55.699219 29.789062 55.816406 L 28.996094 55.9375 L 28.386719 56.027344 L 28.386719 55.546875 C 28.765625 55.421875 29.144531 55.296875 29.519531 55.175781 L 30.160156 54.964844 C 30.773438 54.832031 30.773438 54.832031 31.328125 54.929688 " fill-opacity="1" fill-rule="nonzero"/><path fill="#8f8f8f" d="M 12.875 60.558594 L 12.875 61.039062 C 12.070312 61.394531 11.632812 61.515625 10.726562 61.515625 L 10.726562 61.039062 C 12.070312 60.558594 12.070312 60.558594 12.875 60.558594 " fill-opacity="1" fill-rule="nonzero"/><path fill="#0e3e45" d="M 264.640625 121.890625 L 265.117188 121.890625 L 264.878906 124.039062 L 264.402344 124.039062 Z M 264.640625 121.890625 " fill-opacity="1" fill-rule="nonzero"/><path fill="#0f3135" d="M 14.070312 60.082031 L 14.785156 60.320312 C 14.394531 60.574219 13.996094 60.8125 13.59375 61.039062 L 12.875 61.039062 L 12.875 60.558594 C 13.429688 60.308594 13.429688 60.308594 14.070312 60.082031 " fill-opacity="1" fill-rule="nonzero"/></svg>